<?xml version="1.0" encoding="UTF-8" standalone="no"?>
<!-- Generator: Adobe Illustrator 16.0.3, SVG Export Plug-In . SVG Version: 6.00 Build 0)  -->

<svg
   version="1.1"
   id="Capa_1"
   x="0px"
   y="0px"
   width="2505.3135"
   height="720"
   viewBox="0 0 2505.3134 719.99999"
   enable-background="new 0 0 595.28 841.89"
   xml:space="preserve"
   sodipodi:docname="Logo de la Loteria Nacional.svg"
   inkscape:version="1.1 (c68e22c387, 2021-05-23)"
   xmlns:inkscape="http://www.inkscape.org/namespaces/inkscape"
   xmlns:sodipodi="http://sodipodi.sourceforge.net/DTD/sodipodi-0.dtd"
   xmlns="http://www.w3.org/2000/svg"
   xmlns:svg="http://www.w3.org/2000/svg"><defs
   id="defs79" /><sodipodi:namedview
   id="namedview77"
   pagecolor="#ffffff"
   bordercolor="#666666"
   borderopacity="1.0"
   inkscape:pageshadow="2"
   inkscape:pageopacity="0.0"
   inkscape:pagecheckerboard="0"
   showgrid="false"
   fit-margin-top="0"
   fit-margin-left="0"
   fit-margin-right="0"
   fit-margin-bottom="0"
   inkscape:zoom="0.24706315"
   inkscape:cx="892.48437"
   inkscape:cy="366.30311"
   inkscape:window-width="1920"
   inkscape:window-height="1017"
   inkscape:window-x="1912"
   inkscape:window-y="-8"
   inkscape:window-maximized="1"
   inkscape:current-layer="Capa_1" />
<g
   id="g74"
   transform="matrix(4.3636327,0,0,4.3636327,-52.362389,-1483.1548)">
	<g
   id="g72">
		
		
		<path
   fill-rule="evenodd"
   clip-rule="evenodd"
   fill="#252729"
   d="m 469.929,458.334 c 0,-6.777 0.118,-12.203 -0.051,-17.621 -0.083,-2.645 0.429,-3.745 3.471,-3.798 11.821,-0.206 11.819,-0.332 11.819,11.415 0,10.493 -0.104,20.988 0.064,31.479 0.05,3.077 -0.6,4.028 -3.981,4.32 -6.411,0.552 -10.975,-1.204 -14.628,-6.724 -3.157,-4.771 -7.27,-8.909 -11.847,-14.389 0,6.669 -0.099,12.066 0.044,17.456 0.064,2.436 -0.427,3.459 -3.224,3.569 -12.378,0.488 -12.373,0.595 -12.373,-11.869 0,-10.493 0.077,-20.987 -0.053,-31.479 -0.033,-2.722 0.681,-3.54 3.564,-3.818 6.489,-0.625 11.373,0.937 15.151,6.719 3.212,4.914 7.427,9.172 12.044,14.74 z"
   id="path6"
   style="fill:#000000" />
		<path
   fill-rule="evenodd"
   clip-rule="evenodd"
   fill="#252729"
   d="m 237,458.202 c 0,-6.86 0.117,-12.36 -0.052,-17.851 -0.079,-2.562 0.637,-3.353 3.317,-3.426 12.037,-0.327 12.034,-0.428 12.034,11.737 0,10.499 -0.12,21 0.074,31.496 0.057,3.082 -0.859,3.654 -3.863,3.948 -6.368,0.623 -11.014,-1.003 -14.676,-6.605 -3.156,-4.826 -7.315,-8.997 -11.947,-14.559 0,6.564 -0.116,11.928 0.049,17.282 0.081,2.62 -0.387,3.756 -3.448,3.825 -12.113,0.273 -12.11,0.4 -12.11,-11.663 0,-10.499 0.1,-20.999 -0.063,-31.495 -0.047,-3.025 0.866,-3.697 3.897,-4.038 6.656,-0.749 11.28,1.332 15.009,6.992 3.159,4.794 7.28,8.951 11.779,14.357 z"
   id="path8"
   style="fill:#000000" />
		<path
   id="path10"
   d="m 407.38867,435.95703 c -15.243,-0.004 -26.37536,10.44417 -26.31836,24.70117 0.057,14.263 11.1275,24.41066 26.5625,24.34766 15.092,-0.061 26.00471,-10.23889 26.09571,-24.33789 0.093,-14.193 -11.11285,-24.70694 -26.33985,-24.71094 z m 0.25391,12.93164 c 5.955,0.145 10.32536,5.24349 10.19336,11.89649 -0.134,6.726 -4.58817,11.43831 -10.70117,11.32031 -6.06,-0.116 -10.23596,-4.99227 -10.12696,-11.82227 0.107,-6.702 4.62277,-11.53953 10.63477,-11.39453 z" />
		<path
   id="path12"
   d="m 272.28125,373.0625 c -14.96,0.045 -26.09252,10.37203 -26.22852,24.33203 -0.14,14.335 10.79591,24.70906 26.12891,24.78906 15.333,0.08 26.49158,-10.20064 26.51758,-24.43164 0.026,-14.168 -11.27897,-24.73445 -26.41797,-24.68945 z m 0.10352,12.91406 c 0.18303,10e-4 0.36735,0.008 0.55273,0.0195 5.873,0.366 10.17614,5.71549 9.86914,12.27149 -0.313,6.714 -4.97848,11.39269 -11.02148,11.05469 -6.009,-0.336 -10.00921,-5.32427 -9.78321,-12.19727 0.21119,-6.42184 4.70881,-11.19375 10.38282,-11.14844 z" />
		<path
   id="path14"
   d="m 397.58008,374.04492 c -2.4177,0.14017 -3.08961,1.37494 -3.03711,4.22656 0.191,10.49 0.0703,20.98747 0.0703,31.48047 -10e-4,11.607 -6.1e-4,11.48936 11.77539,11.44336 3.029,-0.011 4.35319,-0.71428 3.86719,-3.86328 -0.176,-1.138 -0.15709,-2.34428 0.004,-3.48828 0.211,-1.494 -0.97841,-3.57983 1.30859,-4.29883 2.322,-0.729 3.88847,0.59456 4.73047,2.60156 3.309,7.895 9.24306,10.50782 17.41406,9.00782 1.44,-0.265 2.97198,-0.0371 5.45899,-0.0371 -3.06401,-4.544 -5.50855,-8.26797 -8.06055,-11.91797 -1.113,-1.59 -1.41222,-2.56399 0.55078,-3.95899 6.409,-4.55 7.59766,-11.14932 5.84766,-18.23632 -1.799,-7.284 -7.30147,-10.85463 -14.35547,-12.14063 -8.092,-1.476 -16.29274,-0.3645 -24.42774,-0.8125 -0.41962,-0.0231 -0.8011,-0.0259 -1.14648,-0.006 z m 15.60156,12.33789 c 0.34185,-0.005 0.72102,0.0144 1.13867,0.0625 3.674,0.423 7.66924,0.0188 7.86524,5.33985 0.151,4.102 -2.18193,5.37365 -8.04493,5.72265 -5.30199,0.314 -3.69967,-3.22237 -3.88867,-5.85937 -0.29906,-2.77585 -0.37488,-5.21451 2.92969,-5.26563 z" />
		<path
   fill-rule="evenodd"
   clip-rule="evenodd"
   fill="#252729"
   d="m 348.832,397.009 c 0.001,-6.493 0.091,-12.988 -0.045,-19.479 -0.053,-2.515 0.612,-3.51 3.329,-3.473 10.321,0.142 20.646,0.146 30.968,-0.002 2.86,-0.041 3.646,0.897 3.692,3.7 0.137,8.364 0.262,8.361 -7.925,8.362 -3.996,0 -7.994,0.089 -11.987,-0.031 -2.313,-0.069 -2.743,1.042 -2.741,3.05 0.002,1.965 0.758,2.64 2.657,2.606 4.327,-0.075 8.679,0.243 12.98,-0.102 3.68,-0.294 4.763,1.11 4.227,4.478 -0.129,0.813 -0.129,1.68 0,2.492 0.534,3.358 -0.532,4.785 -4.218,4.476 -4.134,-0.348 -8.322,0.024 -12.479,-0.119 -2.354,-0.081 -3.179,0.683 -3.199,3.107 -0.021,2.484 0.915,3.124 3.215,3.075 5.491,-0.117 10.992,0.091 16.48,-0.09 2.742,-0.091 3.74,0.659 3.802,3.575 0.178,8.485 0.316,8.482 -8.299,8.482 -8.825,0 -17.654,-0.167 -26.472,0.084 -3.403,0.097 -4.156,-1.066 -4.052,-4.214 0.22,-6.652 0.067,-13.317 0.067,-19.977 z"
   id="path16"
   style="fill:#000000" />
		<path
   id="path18"
   d="m 515.1875,436.91602 c -0.64471,8e-5 -1.33038,0.002 -2.0625,0.004 -2.793,0.008 -4.07195,0.92083 -5.12695,3.42383 -5.599,13.29 -11.38703,26.5 -17.08203,39.75 -0.491,1.143 -1.5503,2.19519 -0.7793,3.86719 4.066,0 8.21147,-0.0606 12.35547,0.0254 1.879,0.038 3.30614,-0.31731 3.61914,-2.44531 0.775,-5.27 4.12594,-6.42057 8.83594,-5.72657 1.79,0.265 3.67956,0.24196 5.47656,0.002 4.01,-0.537 6.67526,0.6175 7.44726,4.9375 0.333,1.866 1.03511,3.35981 3.53711,3.25781 4.423,-0.182 8.85963,-0.0508 13.89063,-0.0508 -5.437,-12.565 -10.60855,-24.55335 -15.81055,-36.52735 -4.34531,-9.99843 -4.63012,-10.51878 -14.30078,-10.51757 z m 2.3125,16.81054 c 0.953,2.477 1.63528,4.83552 2.73828,6.97852 1.753,3.404 0.25385,3.71309 -2.78516,3.87109 -3.93299,0.204 -5.31584,-0.76776 -3.21484,-4.50976 1.106,-1.968 1.06672,-4.51685 3.26172,-6.33985 z" />
		<path
   id="path20"
   d="m 280.59766,436.92773 c -2.935,-0.01 -4.40669,0.85838 -5.55469,3.60938 -5.245,12.563 -10.74852,25.01811 -16.10352,37.53711 -0.761,1.78 -2.10331,3.41067 -1.82031,5.88867 4.328,0 8.62973,-0.0556 12.92774,0.0234 1.759,0.032 2.92701,-0.49889 3.16601,-2.33789 0.744,-5.724 4.58897,-6.33213 9.29297,-5.82813 2.141,0.228 4.35542,0.27033 6.48242,-0.0137 3.268,-0.437 4.81117,0.9578 5.70117,3.9668 0.5,1.691 0.3855,4.21731 3.3125,4.19531 4.595,-0.035 9.19136,-0.0117 14.44336,-0.0117 -5.466,-12.645 -10.64475,-24.64567 -15.84375,-36.63867 -4.536,-10.466 -4.5459,-10.35263 -16.0039,-10.39063 z m 3.69531,15.94141 c 1.167,2.922 2.05522,4.70294 2.57422,6.58594 0.412,1.498 2.31519,3.34679 0.86719,4.4668 -1.79501,1.38799 -4.42855,0.58115 -6.68555,0.41015 -1.222,-0.092 -0.81749,-1.12386 -0.52149,-1.88086 1.118,-2.867 2.24963,-5.72703 3.76563,-9.58203 z" />
		<path
   id="path22"
   d="m 496.63672,374.00195 c -1.51359,-0.0239 -3.33747,0.0371 -5.58203,0.11133 -0.333,0.011 -0.66905,0.0321 -0.99805,-0.002 -1.79,-0.185 -2.61297,0.75398 -3.29297,2.33398 -6.276,14.605 -12.63037,29.17497 -19.35937,44.66797 5.165,0 9.47715,-0.0577 13.78515,0.0293 1.809,0.035 2.89719,-0.67088 3.11719,-2.42188 0.735,-5.833 4.68761,-6.23087 9.34961,-5.79687 2.474,0.23 4.99347,0.15186 7.48047,0.006 2.125,-0.125 3.59675,0.42317 3.96875,2.70117 0.815,4.993 3.96516,6.23834 8.53515,5.52734 1.62501,-0.253 3.33947,-0.19981 4.98047,-0.008 3.906,0.46 4.94877,-0.46669 3.13477,-4.42969 -4.832,-10.557 -9.30478,-21.28059 -13.92578,-31.93359 -3.90244,-8.99681 -4.63445,-10.68176 -11.19336,-10.78516 z m -1.16992,16.21485 c 1.564,4.101 2.86164,7.50206 4.30664,11.28906 h -8.57227 c 0.825,-3.783 2.31063,-7.18206 4.26563,-11.28906 z" />
		<path
   fill-rule="evenodd"
   clip-rule="evenodd"
   fill="#252729"
   d="m 335.343,485.005 c -16.757,-0.018 -27.522,-11.391 -26.316,-27.087 1.081,-14.082 14.624,-23.961 29.871,-21.74 5.726,0.834 10.91,2.852 15.085,7.082 1.452,1.472 1.766,2.585 -0.115,3.934 -1.347,0.966 -2.594,2.108 -3.734,3.314 -2.441,2.583 -4.282,4.06 -7.866,0.719 -4.345,-4.052 -11.247,-2.973 -14.806,1.225 -3.662,4.32 -3.475,12.579 0.378,16.63 3.571,3.756 10.401,4.492 14.536,0.721 3.156,-2.879 4.795,-2.206 7.488,0.407 6.492,6.299 6.328,7.953 -2.141,12.094 -4.117,2.011 -8.48,2.895 -12.38,2.701 z"
   id="path24"
   style="fill:#000000" />
		<path
   fill-rule="evenodd"
   clip-rule="evenodd"
   fill="#252729"
   d="m 321.94,374.112 c 5.832,0 11.668,0.115 17.495,-0.051 2.68,-0.076 3.768,0.519 3.817,3.521 0.148,8.972 0.29,9.203 -8.776,8.911 -4.059,-0.132 -4.978,1.178 -4.855,4.995 0.277,8.656 -0.019,17.33 0.146,25.992 0.055,2.836 -0.805,3.645 -3.654,3.712 -12.188,0.292 -12.186,0.392 -12.187,-11.982 0,-6.499 -0.09,-13 0.047,-19.496 0.05,-2.372 -0.662,-3.392 -3.095,-3.138 -1.318,0.139 -2.663,0.038 -3.996,0.021 -7.734,-0.104 -6.331,0.918 -6.821,-6.523 -0.311,-4.713 0.865,-6.538 5.892,-6.07 5.286,0.49 10.654,0.108 15.987,0.108 z"
   id="path26"
   style="fill:#000000" />
		<path
   fill-rule="evenodd"
   clip-rule="evenodd"
   fill="#252729"
   d="m 549.223,460.661 c 0,-6.653 0.106,-13.311 -0.052,-19.96 -0.064,-2.711 0.611,-3.706 3.562,-3.779 12.305,-0.309 12.302,-0.419 12.302,11.861 0,6.487 0.142,12.979 -0.063,19.46 -0.093,2.896 0.868,3.717 3.669,3.589 4.647,-0.213 9.316,0.06 13.969,-0.105 2.456,-0.087 3.421,0.435 3.476,3.21 0.18,9.029 0.32,9.026 -8.586,9.026 -8.317,0 -16.637,-0.09 -24.951,0.052 -2.615,0.045 -3.444,-0.77 -3.379,-3.394 0.164,-6.65 0.054,-13.306 0.053,-19.96 z"
   id="path28"
   style="fill:#000000" />
		<path
   fill-rule="evenodd"
   clip-rule="evenodd"
   fill="#252729"
   d="m 206.379,397.503 c 0,-6.666 0.09,-13.334 -0.044,-19.998 -0.052,-2.589 0.809,-3.36 3.427,-3.462 12.359,-0.476 12.356,-0.562 12.356,11.903 0,6 0.322,12.022 -0.107,17.991 -0.315,4.394 1.281,5.363 5.289,5.031 4.304,-0.356 8.663,0.019 12.991,-0.121 2.138,-0.069 2.771,0.568 2.895,2.778 0.528,9.497 0.621,9.492 -8.686,9.492 -8.166,0 -16.334,-0.106 -24.498,0.058 -2.838,0.057 -3.764,-0.81 -3.683,-3.675 0.188,-6.66 0.059,-13.33 0.06,-19.997 z"
   id="path30"
   style="fill:#000000" />
		<path
   fill-rule="evenodd"
   clip-rule="evenodd"
   fill="#26282A"
   d="m 445.927,397.352 c 0,-6.646 0.108,-13.295 -0.053,-19.938 -0.064,-2.638 0.827,-3.293 3.403,-3.372 12.349,-0.375 12.346,-0.46 12.347,11.932 0,10.468 -0.071,20.937 0.048,31.402 0.03,2.658 -0.518,3.747 -3.521,3.826 -12.228,0.326 -12.224,0.443 -12.224,-11.888 0,-3.986 0,-7.975 0,-11.962 z"
   id="path32"
   style="fill:#000000" />
		<path
   fill-rule="evenodd"
   clip-rule="evenodd"
   fill="#252729"
   d="m 359.773,460.417 c 0,-6.476 0.113,-12.954 -0.053,-19.425 -0.072,-2.813 0.391,-4.059 3.713,-4.087 11.955,-0.102 11.953,-0.251 11.953,11.775 0,10.46 -0.095,20.923 0.062,31.381 0.043,2.893 -0.52,3.973 -3.752,3.993 -11.924,0.075 -11.923,0.218 -11.923,-11.683 0,-3.983 0,-7.968 0,-11.954 z"
   id="path34"
   style="fill:#000000" />
		<path
   fill-rule="evenodd"
   clip-rule="evenodd"
   fill="#2A2C2E"
   d="m 447.783,370.097 c 3.946,-9.817 11.248,-12.178 21.201,-9.711 -6.629,4.796 -11.25,12.828 -21.201,9.711 z"
   id="path36"
   style="fill:#000000" />
		
		
		
		
		
		
		
		
		
		
		
		
		
		
		
		
		
	</g>
</g>
<g
   id="g20"
   transform="matrix(0.36720217,0,0,0.36719422,249.65767,205.26675)"><g
     id="g18"><path
       id="path4"
       d="m 315.37305,-558.91211 c -552.025,-7.852 -994.88168,438.721 -995.26367,978.75 -0.76201,541.059 437.94401,979.53511 975.79101,981.95311 543.68,2.445 986.12151,-439.57255 984.97851,-982.22655 -1.131,-537.129 -434.38285,-970.92156 -965.50585,-978.47656 z m -0.18555,68.11914 c 494.129,7.346 897.2175,411.503548 897.6855,912.31055 -0.042,503.529 -411.90516,917.90612 -923.53316,912.16012 -497.07,-5.582 -907.48575,-414.33681 -901.09375,-924.96481 6.202,-495.437999 414.25841,-907.12686 926.94141,-899.50586 z"
       style="fill:#aa0432;fill-opacity:1" /><path
       id="path8-8"
       d="m 314.14062,-401.65039 c -464.37599,-7.276 -834.48135,366.031156 -836.81835,818.03516 -2.368,457.842 366.36548,824.90123 816.27148,828.11523 459.547,4.174 837.17745,-370.50919 829.98245,-836.36719 -6.856,-443.790997 -364.96358,-802.8202 -809.43558,-809.7832 z m 1.66993,176.17578 c 93.35234,2.43533 183.06392,23.05989 269.04492,62.02539 80.714,36.576 151.86414,86.911548 213.36914,150.685548 85.088,88.229 143.17094,191.749782 174.33594,310.300782 8.629,32.824 14.87603,66.14945 18.08203,99.93945 2.475,26.082 1.50458,52.22452 -0.48242,78.35352 -3.127,41.093 -10.46893,81.39219 -22.16993,120.86719 -27.174,91.674 -73.80151,172.17596 -139.85351,241.29296 -68.011,71.166 -148.86181,122.26024 -242.25781,153.36524 -38.108,12.69103 -77.18243,21.12063 -117.10743,25.76363 -31.02,3.607 -62.11853,4.7537 -93.26953,3.4317 -84.045,-3.567 -164.02514,-23.64044 -239.11914,-61.60744 -118.495997,-59.911 -207.564544,-149.5435 -266.93554,-268.3125 -29.018,-58.049 -47.21774,-119.52578 -55.67774,-183.92578 -4.526,-34.462 -6.05941,-69.04255 -4.44141,-103.68555 4.80601,-102.973 34.03226,-198.53886 88.78126,-286.00586 59.038995,-94.319998 138.543167,-166.380154 237.82617,-216.535154 53.066,-26.808996 109.11723,-44.713066 167.74023,-54.414066 25.787,-4.267 51.76603,-7.06668 77.95703,-7.30468 0.819,-0.007 1.63722,-0.13527 2.44922,-0.44727 -16.557,-1.325 -33.12392,-0.86328 -49.66992,-0.11328 -26.952,1.223 -53.75652,4.09 -80.35352,8.625 -61.346,10.462 -120.19934,28.87492 -176.40234,55.669921 -83.358,39.742 -155.670781,94.2203277 -216.67578,163.486328 -70.167,79.670001 -118.95152,170.873261 -146.22852,273.572261 -18.008,67.803 -24.89792,136.76427 -21.41992,206.69727 6.102,122.683 41.59564,236.43253 106.55664,340.64453 65.094,104.426 151.566299,186.38097 260.779299,243.74997 38.232,20.083 78.229561,35.8591 119.851561,47.4551 0.142,0.04 0.25691,0.1755 1.37891,0.9785 -14.437,-1.927 -27.74996,-4.6642 -41.00196,-7.6582 -79.017996,-17.854 -152.284074,-49.2734 -219.955074,-93.7304 -58.185996,-38.225 -109.367766,-84.3068 -154.009766,-137.7188 -42.553,-50.913 -77.47383,-106.60215 -104.79883,-167.03515 -24.06,-53.213 -41.59706,-108.49217 -52.28906,-165.95117 -6.831,-36.707 -10.82862,-73.66738 -12.14063,-110.98438 -1.302,-37.025 0.5971,-73.84308 5.1211,-110.58008 9.935,-80.647 33.50381,-157.1377 70.38281,-229.4707 35.249,-69.137001 80.813,-130.734892 136.625,-184.712892 72.749,-70.359 156.720392,-122.697628 252.025392,-156.765628 C 107.03742,-201.6783 153.422,-212.92259 201,-219.30859 c 24.765,-3.324 49.60208,-5.36766 74.58008,-6.09766 13.48437,-0.39413 26.89442,-0.41626 40.23047,-0.0684 z"
       style="fill:#aa0432;fill-opacity:1" /><path
       fill-rule="evenodd"
       clip-rule="evenodd"
       fill="#aa0432"
       d="m 470.14,282.673 c 1.404,5.202 2.812,10.403 4.213,15.606 23.996,89.078 48.014,178.151 71.909,267.257 0.936,3.487 2.318,4.656 5.982,4.671 55.313,0.216 110.626,0.564 165.938,0.999 3.324,0.026 4.859,-0.501 5.337,-4.273 2.678,-21.106 5.679,-42.172 8.561,-63.253 3.196,-23.387 6.388,-46.775 9.575,-70.163 3.459,-25.372 6.909,-50.745 10.367,-76.116 3.57,-26.192 7.171,-52.38 10.713,-78.574 3.81,-28.167 7.539,-56.345 11.354,-84.511 3.475,-25.646 7.018,-51.282 10.612,-77.516 3.293,2.283 5.051,5.307 7.111,7.946 49.28,63.156 82.033,133.894 97.43,212.594 5.509,28.157 8.473,56.543 9.149,85.242 1.957,82.952 -15.581,161.54 -52.49,235.759 -23.007,46.263 -52.68,87.892 -88.789,124.898 -66.509,68.161 -145.918,114.004 -238.225,137.342 -38.219,9.663 -77.108,14.543 -116.563,14.701 -6.161,0.024 -12.327,0.133 -18.479,0.43 -3.312,0.16 -3.935,-1.211 -3.521,-4.182 4.822,-34.62 9.579,-69.25 14.331,-103.88 5.86,-42.708 11.697,-85.42 17.55,-128.129 4.835,-35.285 9.695,-70.566 14.514,-105.853 5.516,-40.402 10.978,-80.813 16.502,-121.214 4.757,-34.788 9.577,-69.568 14.355,-104.354 3.804,-27.693 7.587,-55.39 11.383,-83.084 0.103,-0.747 0.247,-1.489 0.372,-2.233 0.27,-0.035 0.539,-0.073 0.809,-0.11 z"
       id="path12-4" /><path
       fill-rule="evenodd"
       clip-rule="evenodd"
       fill="#aa0432"
       d="m 622.356,461.736 c -3.25,-11.699 -6.253,-22.539 -9.274,-33.375 -24.206,-86.806 -48.423,-173.607 -72.584,-260.425 -0.764,-2.742 -1.232,-4.713 -5.021,-4.626 -18.82,0.431 -37.648,0.52 -56.474,0.705 -35.151,0.348 -70.302,0.737 -105.454,0.92 -3.417,0.018 -4.142,1.352 -4.536,4.243 -4.679,34.323 -9.449,68.633 -14.197,102.946 -7.872,56.902 -15.756,113.803 -23.615,170.707 -5.537,40.082 -11.109,80.159 -16.472,120.264 -0.644,4.811 -1.817,6.999 -7.405,6.958 -22.319,-0.163 -44.644,0.288 -66.966,0.504 -19.491,0.189 -38.983,0.286 -58.472,0.624 -3.541,0.062 -4.449,-0.697 -3.949,-4.387 9.063,-66.839 17.993,-133.696 26.938,-200.551 10.865,-81.21 21.714,-162.422 32.576,-243.632 7.373,-55.131 14.806,-110.254 22.041,-165.402 0.545,-4.153 2.164,-5.673 6.159,-6.734 36.305,-9.648 73.136,-15.494 110.708,-16.975 105.837,-4.171 203.193,22.577 292.715,79.007 8.409,5.301 10.733,10.391 9.344,20.173 -6.837,48.104 -12.829,96.33 -19.059,144.521 -6.999,54.14 -13.952,108.284 -20.888,162.432 -5.117,39.947 -10.173,79.902 -15.271,119.852 -0.055,0.434 -0.308,0.845 -0.844,2.251 z"
       id="path14-0" /><path
       fill-rule="evenodd"
       clip-rule="evenodd"
       fill="#aa0432"
       d="m 148.541,-0.817 c -2.512,18.239 -4.873,35.355 -7.224,52.473 -5.524,40.226 -11.031,80.453 -16.567,120.678 -5.376,39.068 -10.791,78.133 -16.168,117.201 -5.285,38.401 -10.513,76.811 -15.825,115.208 -3.851,27.839 -7.825,55.661 -11.695,83.497 -4.376,31.471 -8.724,62.945 -13.035,94.424 -4.492,32.791 -8.869,65.597 -13.481,98.37 -0.447,3.179 -0.009,4.005 3.256,3.981 50.979,-0.373 101.959,-0.674 152.938,-0.907 27.829,-0.128 55.658,-0.009 83.485,-0.237 4.428,-0.036 3.423,2.327 3.094,4.746 -4.031,29.697 -8.061,59.394 -12.121,89.087 -6.157,45.03 -12.389,90.05 -18.423,135.097 -0.556,4.147 -1.51,5.064 -5.78,3.838 C 180.209,893.432 109.347,852.967 49.033,794.41 -24.466,723.049 -71.936,637.18 -93.256,536.91 c -7.862,-36.976 -11.422,-74.397 -10.5,-112.13 C -100.953,310.008 -63.746,207.635 8.356,118.201 46.593,70.771 92.342,31.938 144.93,1.173 c 0.839,-0.491 1.702,-0.939 3.611,-1.99 z"
       id="path16-1" /></g></g></svg>
